<svg xmlns="http://www.w3.org/2000/svg" fill="none" viewBox="-0.5 -0.5 24 24" id="Dinersclub--Streamline-Svg-Logos.svg" height="24" width="24"><desc>Dinersclub Streamline Icon: https://streamlinehq.com</desc><path fill="#006095" d="M4.584810416666667 14.431901041666666c1.6060708333333333 0.007810416666666666 3.0721052083333333 -1.3069510416666668 3.0721052083333333 -2.906433333333333 0 -1.7489822916666666 -1.4660343750000002 -2.9578718750000004 -3.0721052083333333 -2.95736875h-1.3821322916666667C1.5773783333333335 8.567595833333334 0.23958333333333334 9.776772916666667 0.23958333333333334 11.525467708333332c0 1.5998416666666668 1.337795 2.9142437500000002 2.963094791666667 2.906433333333333h1.3821322916666667Z" stroke-width="1"></path><path fill="#fff" d="M3.819054166666667 13.082903125000001V9.906938541666667c0.6397354166666667 0.244878125 1.093865625 0.8629552083333334 1.09494375 1.5878625000000002 -0.0010781249999999999 0.725075 -0.4552083333333333 1.3427927083333335 -1.09494375 1.5881020833333332Zm-2.3144540625000003 -1.5881020833333332c0.0014351041666666666 -0.7245 0.45485614583333334 -1.34219375 1.0942321875 -1.587790625v3.1752458333333333c-0.6393760416666666 -0.24538125000000002 -1.0927970833333334 -0.8627395833333333 -1.0942321875 -1.5874552083333333Zm1.7044509375 -2.684315625c-1.4851315625000001 0.000503125 -2.688580208333333 1.2017979166666668 -2.6889395833333336 2.684315625 0.00035937500000000005 1.4823739583333333 1.2038080208333333 2.6834770833333335 2.6889395833333336 2.6839083333333336 1.4856322916666667 -0.00043125 2.6892989583333335 -1.201534375 2.689514583333333 -2.6839083333333336 -0.000215625 -1.4825177083333334 -1.2038822916666667 -2.6838125 -2.689514583333333 -2.684315625Z" stroke-width="1"></path><path fill="#1A1918" d="M8.598741666666667 9.829672916666667c0 -0.27734166666666665 -0.14504375000000003 -0.2591333333333333 -0.283978125 -0.26208020833333334v-0.08014062500000001c0.12041458333333335 0.005869791666666667 0.24394375000000001 0.005869791666666667 0.36464583333333334 0.005869791666666667 0.12968645833333334 0 0.30587604166666665 -0.005869791666666667 0.5346541666666667 -0.005869791666666667 0.8001364583333334 0 1.235746875 0.5333125 1.235746875 1.0794666666666668 0 0.30534895833333336 -0.17906458333333333 1.0731656250000001 -1.272978125 1.0731656250000001 -0.15745416666666667 0 -0.3029291666666667 -0.006085416666666667 -0.4480447916666667 -0.006085416666666667 -0.138934375 0 -0.2750895833333334 0.0029468750000000003 -0.41402395833333333 0.006085416666666667v-0.0802125c0.185221875 -0.01854375 0.2750895833333334 -0.024701041666666666 0.283978125 -0.23443229166666668v-1.4957666666666667Zm0.3028572916666667 1.446484375c0 0.23745104166666667 0.17015208333333334 0.26517083333333336 0.3214489583333333 0.26517083333333336 0.6675510416666668 0 0.8868177083333333 -0.5026697916666667 0.8868177083333333 -0.9622385416666668 0 -0.576509375 -0.37082708333333336 -0.9928093750000001 -0.9671260416666666 -0.9928093750000001 -0.12688333333333332 0 -0.18524583333333333 0.009032291666666666 -0.241140625 0.012314583333333334v1.6775625Zm1.656575 0.2837864583333334h0.05865c0.08639374999999999 0 0.1482541666666667 0 0.1482541666666667 -0.10199062500000002v-0.8355947916666666c0 -0.13558020833333334 -0.0462875 -0.15443541666666666 -0.16076041666666668 -0.21574479166666666V10.3571875c0.145259375 -0.04338854166666667 0.31843020833333335 -0.101703125 0.330625 -0.11092708333333334 0.021754166666666668 -0.012338541666666666 0.04020208333333333 -0.015620833333333332 0.055703125000000006 -0.015620833333333332 0.015285416666666666 0 0.021682291666666666 0.01854375 0.021682291666666666 0.04338854166666667v1.1839250000000001c0 0.10199062500000002 0.06794583333333334 0.10199062500000002 0.15457916666666668 0.10199062500000002h0.052372916666666665v0.0802125c-0.10512916666666668 0 -0.21334895833333334 -0.006157291666666667 -0.3243 -0.006157291666666667 -0.11131041666666668 0 -0.22262083333333335 0.00301875 -0.33680625 0.006157291666666667v-0.0802125Zm0.330625 -1.8041104166666666c-0.08052395833333334 0 -0.15141666666666667 -0.07400729166666667 -0.15141666666666667 -0.1542197916666667 0 -0.07721770833333333 0.07427083333333334 -0.14832604166666666 0.15141666666666667 -0.14832604166666666 0.08009270833333333 0 0.15136875000000002 0.06502291666666667 0.15136875000000002 0.14832604166666666 0 0.08337499999999999 -0.06811354166666667 0.1542197916666667 -0.15136875000000002 0.1542197916666667Zm0.6240906250000001 0.8849250000000001c0 -0.11401770833333333 -0.03416458333333334 -0.14475625 -0.17906458333333333 -0.203334375v-0.05860208333333334c0.13270520833333332 -0.043101041666666666 0.2593010416666667 -0.08337499999999999 0.40777083333333336 -0.1481822916666667 0.0092 0 0.018232291666666667 0.006301041666666667 0.018232291666666667 0.030786458333333336v0.20055520833333332c0.17640520833333334 -0.12626041666666668 0.32791770833333334 -0.23134166666666667 0.5351572916666666 -0.23134166666666667 0.26246354166666663 0 0.35511041666666665 0.19123541666666669 0.35511041666666665 0.431825v0.7954885416666667c0 0.10199062500000002 0.06789791666666667 0.10199062500000002 0.15450729166666669 0.10199062500000002h0.05563125v0.0802125c-0.10836354166666666 0 -0.21653541666666667 -0.006157291666666667 -0.32748645833333334 -0.006157291666666667 -0.11138229166666666 0 -0.22269270833333335 0.00301875 -0.33383541666666666 0.006157291666666667v-0.0802125h0.05553541666666667c0.08668125 0 0.14820625 0 0.14820625 -0.10199062500000002v-0.7984833333333334c0 -0.17599791666666667 -0.10766875000000001 -0.26215208333333334 -0.28405 -0.26215208333333334 -0.098828125 0 -0.25642604166666666 0.08006875000000001 -0.3587760416666667 0.1479666666666667v0.91266875c0 0.10199062500000002 0.06840104166666666 0.10199062500000002 0.15493854166666668 0.10199062500000002h0.055559375v0.0802125c-0.10814791666666668 0 -0.21643958333333332 -0.006157291666666667 -0.327678125 -0.006157291666666667 -0.11109479166666666 0 -0.22254895833333332 0.00301875 -0.33364375 0.006157291666666667v-0.0802125h0.05575104166666667c0.08648958333333333 0 0.14813437499999998 0 0.14813437499999998 -0.10199062500000002v-0.8171947916666666Zm1.5823041666666668 0.148278125c-0.006396875000000001 0.02779166666666667 -0.006396875000000001 0.07391145833333333 0 0.17884895833333336 0.01816041666666667 0.29286666666666666 0.2071916666666667 0.5333364583333334 0.45398645833333334 0.5333364583333334 0.17022395833333334 0 0.3032885416666667 -0.09255104166666667 0.41733020833333334 -0.20652083333333335l0.043196874999999996 0.043196874999999996c-0.14216875 0.18816875 -0.31835833333333335 0.34847395833333333 -0.5714781250000001 0.34847395833333333 -0.4915291666666667 0 -0.5902854166666667 -0.475021875 -0.5902854166666667 -0.6722947916666666 0 -0.6045166666666667 0.40772291666666666 -0.7834375 0.6238750000000001 -0.7834375 0.2505322916666667 0 0.519584375 0.15721458333333335 0.522315625 0.48412604166666673 0 0.018759375 0 0.037015625 -0.00273125 0.055703125000000006l-0.028055208333333335 0.018567708333333335h-0.8681541666666668Zm0.5469927083333334 -0.09878020833333334c0.07721770833333333 0 0.08620208333333333 -0.040178125 0.08620208333333333 -0.07714583333333334 0 -0.15721458333333335 -0.095665625 -0.2836427083333333 -0.26883645833333336 -0.2836427083333333 -0.18838437500000002 0 -0.31814270833333336 0.13845520833333333 -0.35518229166666665 0.3607885416666667h0.5378166666666667Zm0.4232 0.8696875000000001h0.08347083333333333c0.08620208333333333 0 0.1480625 0 0.1480625 -0.10199062500000002v-0.8664052083333333c0 -0.09554583333333333 -0.11418541666666668 -0.11416145833333333 -0.16061666666666669 -0.138790625v-0.04614375c0.22556770833333334 -0.09568958333333333 0.3492166666666667 -0.17597395833333335 0.377415625 -0.17597395833333335 0.01816041666666667 0 0.027336458333333334 0.009223958333333334 0.027336458333333334 0.04025v0.27748541666666665h0.0066125c0.07693020833333333 -0.12027083333333334 0.20697604166666667 -0.3177354166666667 0.39536041666666666 -0.3177354166666667 0.07728958333333334 0 0.17604583333333335 0.052348958333333334 0.17604583333333335 0.16344375000000003 0 0.083303125 -0.05855416666666667 0.15750208333333335 -0.14504375000000003 0.15750208333333335 -0.09616875 0 -0.09616875 -0.07419895833333333 -0.20417291666666668 -0.07419895833333333 -0.0526125 0 -0.22556770833333334 0.07098854166666667 -0.22556770833333334 0.25613854166666666v0.724428125c0 0.10199062500000002 0.061644791666666664 0.10199062500000002 0.148278125 0.10199062500000002h0.17295520833333333v0.0802125c-0.17000833333333334 -0.003138541666666667 -0.2993354166666667 -0.006157291666666667 -0.4324 -0.006157291666666667 -0.12666770833333332 0 -0.25649791666666666 0.00301875 -0.36773645833333335 0.006157291666666667v-0.0802125Zm1.189603125 -0.34859375000000004c0.04027395833333333 0.203478125 0.16377916666666667 0.3763135416666667 0.389490625 0.3763135416666667 0.18198750000000002 0 0.24995729166666666 -0.11102291666666667 0.24995729166666666 -0.21888333333333335 0 -0.36399895833333334 -0.6733968750000001 -0.246890625 -0.6733968750000001 -0.743259375 0 -0.17283541666666669 0.13924583333333335 -0.39488125 0.47897500000000004 -0.39488125 0.09875625 0 0.23158125000000002 0.02786354166666667 0.3520197916666667 0.08960416666666667l0.021802083333333333 0.3142854166666667h-0.07110833333333334c-0.030858333333333335 -0.19411041666666667 -0.138934375 -0.30513333333333337 -0.33680625 -0.30513333333333337 -0.12372083333333334 0 -0.24097291666666668 0.07091666666666667 -0.24097291666666668 0.20350208333333336 0 0.3610760416666667 0.7168572916666668 0.2498375 0.7168572916666668 0.7339635416666667 0 0.203478125 -0.16375520833333335 0.4195822916666667 -0.5315635416666668 0.4195822916666667 -0.12357708333333335 0 -0.26883645833333336 -0.04326875 -0.376840625 -0.104865625l-0.03409270833333334 -0.354703125 0.05567916666666667 -0.015525Zm3.677029166666667 -1.1657885416666667h-0.07707395833333333c-0.058865625000000005 -0.36057291666666663 -0.31533958333333334 -0.5056885416666667 -0.6612739583333334 -0.5056885416666667 -0.35551770833333335 0 -0.8716520833333333 0.23737916666666667 -0.8716520833333333 0.9774760416666668 0 0.6233 0.44528958333333335 1.0703145833333332 0.9209583333333333 1.0703145833333332 0.30580416666666665 0 0.5594270833333334 -0.209659375 0.6212875 -0.5336239583333333l0.07091666666666667 0.018495833333333336 -0.07091666666666667 0.450225c-0.12983020833333336 0.08045208333333333 -0.47904687500000004 0.16361145833333332 -0.6831479166666666 0.16361145833333332 -0.7228229166666666 0 -1.18004375 -0.4657260416666667 -1.18004375 -1.1596312500000001 0 -0.6322364583333334 0.565296875 -1.0857197916666668 1.1709395833333334 -1.0857197916666668 0.2501729166666667 0 0.4913135416666667 0.08045208333333333 0.7291479166666667 0.16375520833333335l0.030858333333333335 0.4407854166666667Zm0.11145416666666667 1.5143822916666667h0.058410416666666666c0.08677708333333334 0 0.1486375 0 0.1486375 -0.10199062500000002V9.7405c0 -0.20062708333333334 -0.046359375 -0.206784375 -0.16377916666666667 -0.24066145833333333v-0.049354166666666664c0.12350520833333332 -0.040034375000000004 0.25333541666666665 -0.09554583333333333 0.31821458333333336 -0.13272916666666668 0.03373333333333334 -0.018328125 0.05862604166666667 -0.034020833333333333 0.06775416666666667 -0.034020833333333333 0.018783333333333332 0 0.025036458333333334 0.0186875 0.025036458333333334 0.0434125v2.13080625c0 0.10199062500000002 0.06789791666666667 0.10199062500000002 0.15450729166666669 0.10199062500000002h0.05218125v0.0802125c-0.10469791666666667 0 -0.2129416666666667 -0.006157291666666667 -0.32418020833333333 -0.006157291666666667 -0.11116666666666668 0 -0.22240520833333335 0.00301875 -0.3367822916666667 0.006157291666666667v-0.0802125Zm1.9839656250000002 -0.08960416666666667c0 0.05572708333333334 0.033877083333333335 0.05865 0.08634583333333333 0.05865 0.037159375 0 0.083303125 -0.002922916666666667 0.12364895833333334 -0.002922916666666667v0.06487916666666667c-0.13306458333333335 0.012266666666666667 -0.386328125 0.07700208333333335 -0.44509791666666665 0.09549791666666667l-0.015572916666666667 -0.009319791666666665v-0.24969375000000002c-0.185078125 0.15105729166666665 -0.3274625 0.2590135416666667 -0.5470645833333333 0.2590135416666667 -0.16672604166666666 0 -0.339753125 -0.10795625 -0.339753125 -0.36687395833333336v-0.7896906250000001c0 -0.0802125 -0.012266666666666667 -0.15735833333333335 -0.18515 -0.17269166666666666v-0.05865c0.11138229166666666 -0.00301875 0.35817708333333337 -0.021490625000000003 0.39852291666666667 -0.021490625000000003 0.03423645833333334 0 0.03423645833333334 0.021490625000000003 0.03423645833333334 0.08938854166666667v0.7954885416666667c0 0.09267083333333333 0 0.35784166666666667 0.26862083333333336 0.35784166666666667 0.10505729166666668 0 0.24406354166666666 -0.08016458333333334 0.373678125 -0.18788125v-0.8299406250000001c0 -0.061524999999999996 -0.14820625 -0.09533020833333333 -0.2592291666666667 -0.12618854166666665v-0.05551145833333333c0.27782083333333335 -0.01863958333333333 0.4511354166666667 -0.043196874999999996 0.48185000000000006 -0.043196874999999996 0.024964583333333335 0 0.024964583333333335 0.021490625000000003 0.024964583333333335 0.05558333333333334v1.137709375Zm0.61481875 -1.0175822916666668c0.12345729166666666 -0.104865625 0.290375 -0.22211770833333336 0.4604552083333333 -0.22211770833333336 0.35848854166666666 0 0.574496875 0.311721875 0.574496875 0.6477135416666667 0 0.40396145833333336 -0.29646041666666667 0.8080906250000001 -0.7386114583333333 0.8080906250000001 -0.22844270833333336 0 -0.3489291666666667 -0.07415104166666667 -0.42938125000000005 -0.10795625l-0.092575 0.07077291666666667 -0.06466354166666666 -0.033805208333333336c0.027336458333333334 -0.18193958333333332 0.043125 -0.3608604166666667 0.043125 -0.5489333333333334V9.7405c0 -0.20062708333333334 -0.046575 -0.206784375 -0.16392291666666667 -0.24066145833333333v-0.049354166666666664c0.12388854166666667 -0.040034375000000004 0.25333541666666665 -0.09554583333333333 0.31835833333333335 -0.13272916666666668 0.033948958333333334 -0.018328125 0.05850625 -0.034020833333333333 0.06811354166666667 -0.034020833333333333 0.018519791666666667 0 0.024605208333333333 0.0186875 0.024605208333333333 0.0434125v1.1256104166666667Zm0 0.8387333333333333c0 0.11718020833333333 0.11116666666666668 0.3147885416666667 0.31821458333333336 0.3147885416666667 0.33069687500000006 0 0.46965520833333335 -0.3239645833333334 0.46965520833333335 -0.5985750000000001 0 -0.33299687499999997 -0.25311979166666665 -0.6103864583333333 -0.4942604166666667 -0.6103864583333333 -0.11461666666666667 0 -0.21021041666666668 0.07405520833333333 -0.293609375 0.14504375000000003v0.7491291666666666Zm-13.331015625000001 2.1416833333333334h0.02369479166666667c0.060422916666666666 0 0.12429583333333334 -0.008169791666666667 0.12429583333333334 -0.09554583333333333V12.458572916666666c0 -0.08754375 -0.06387291666666667 -0.09583333333333334 -0.12429583333333334 -0.09583333333333334h-0.02369479166666667v-0.05036041666666667c0.06559791666666667 0 0.16651041666666666 0.006588541666666667 0.24911875000000003 0.006588541666666667 0.08395 0 0.18471875000000001 -0.006588541666666667 0.2637333333333333 -0.006588541666666667v0.05036041666666667h-0.023622916666666667c-0.06027916666666667 0 -0.12429583333333334 0.008289583333333333 -0.12429583333333334 0.09583333333333334v0.8790552083333333c0 0.08737604166666668 0.06401666666666667 0.09554583333333333 0.12429583333333334 0.09554583333333333h0.023622916666666667v0.05057604166666667c-0.08066770833333334 0 -0.18179583333333335 -0.006588541666666667 -0.26553020833333335 -0.006588541666666667 -0.08246458333333334 0 -0.18172395833333332 0.006588541666666667 -0.247321875 0.006588541666666667v-0.05057604166666667Zm1.6680031250000003 -0.2801927083333333 0.003378125 -0.00330625v-0.6291458333333333c0 -0.13766458333333334 -0.09595312500000001 -0.15778958333333334 -0.1463375 -0.15778958333333334h-0.037039583333333334v-0.05036041666666667c0.07908645833333333 0 0.1564479166666667 0.006660416666666667 0.23539062500000002 0.006660416666666667 0.06890416666666667 0 0.13809583333333333 -0.006660416666666667 0.20683229166666667 -0.006660416666666667v0.05036041666666667h-0.025036458333333334c-0.07084479166666667 0 -0.149859375 0.013464583333333334 -0.149859375 0.21308541666666667v0.763671875c0 0.05865 0.001725 0.11732395833333334 0.009990625000000001 0.16931354166666668h-0.06387291666666667l-0.86580625 -0.9632927083333334v0.6914854166666667c0 0.145978125 0.02836666666666667 0.19617083333333332 0.15795729166666667 0.19617083333333332h0.028510416666666667v0.05057604166666667c-0.07221041666666667 0 -0.144396875 -0.006588541666666667 -0.21682291666666667 -0.006588541666666667 -0.07542083333333334 0 -0.15285416666666668 0.006588541666666667 -0.2285625 0.006588541666666667v-0.05057604166666667h0.023527083333333334c0.11598229166666667 0 0.151225 -0.07870312500000001 0.151225 -0.21279791666666667v-0.7067947916666667c0 -0.09384479166666666 -0.07750520833333334 -0.15084166666666668 -0.152878125 -0.15084166666666668h-0.021873958333333336v-0.05036041666666667c0.06380104166666667 0 0.12939895833333334 0.006660416666666667 0.193128125 0.006660416666666667 0.05050416666666666 0 0.09937916666666667 -0.006660416666666667 0.14976354166666667 -0.006660416666666667l0.7483864583333334 0.8406020833333333Zm0.51405 -0.7567239583333334c-0.12630833333333333 0 -0.13102812500000002 0.030211458333333333 -0.15630416666666666 0.15256666666666668h-0.050384375c0.006540625 -0.046934375 0.015069791666666667 -0.09384479166666666 0.020172916666666665 -0.14262395833333336 0.006828125000000001 -0.04705416666666667 0.010038541666666668 -0.09382083333333334 0.010038541666666668 -0.14245625h0.04034583333333333c0.013560416666666667 0.05043229166666666 0.05553541666666667 0.048635416666666674 0.1012 0.048635416666666674h0.8672916666666667c0.045496875000000006 0 0.0874 -0.001653125 0.090921875 -0.05208541666666667l0.04010625 0.006732291666666667c-0.006516666666666666 0.045353125 -0.013344791666666666 0.09053854166666668 -0.018423958333333334 0.13596354166666666 -0.003090625 0.04532916666666667 -0.003090625 0.09068229166666666 -0.003090625 0.13586770833333334l-0.050528125 0.018615625c-0.00345 -0.06202812500000001 -0.011907291666666667 -0.16121562500000003 -0.12443958333333333 -0.16121562500000003h-0.2757364583333334v0.8927354166666667c0 0.12942291666666667 0.058937500000000004 0.14418125 0.1394375 0.14418125h0.031936458333333334v0.05057604166666667c-0.06550208333333334 0 -0.18328125 -0.006588541666666667 -0.273915625 -0.006588541666666667 -0.1009125 0 -0.21866770833333332 0.006588541666666667 -0.2843375 0.006588541666666667v-0.05057604166666667h0.031936458333333334c0.092790625 0 0.13958125000000002 -0.008217708333333334 0.13958125000000002 -0.140659375v-0.8962572916666667h-0.2758083333333333Zm1.0171510416666667 1.0369166666666667h0.023622916666666667c0.06049479166666667 0 0.12443958333333333 -0.008169791666666667 0.12443958333333333 -0.09554583333333333V12.458572916666666c0 -0.08754375 -0.06394479166666668 -0.09583333333333334 -0.12443958333333333 -0.09583333333333334h-0.023622916666666667v-0.05036041666666667c0.10235000000000001 0 0.27758125 0.006588541666666667 0.4185520833333334 0.006588541666666667 0.14145000000000002 0 0.31605833333333333 -0.006588541666666667 0.4302916666666667 -0.006588541666666667 -0.002851041666666667 0.07204270833333334 -0.001221875 0.18299375 0.003665625 0.2567854166666667l-0.050671875 0.013464583333333334c-0.008097916666666666 -0.109034375 -0.028198958333333333 -0.19626666666666667 -0.20489166666666667 -0.19626666666666667h-0.23345000000000002v0.43949166666666667h0.19978854166666668c0.100840625 0 0.12288229166666667 -0.056853125000000004 0.13284895833333335 -0.14767916666666667h0.0503125c-0.00330625 0.06559791666666667 -0.00503125 0.13100416666666667 -0.00503125 0.19631458333333335 0 0.06396875 0.001725 0.12765 0.00503125 0.191403125l-0.0503125 0.009942708333333335c-0.009966666666666667 -0.10055312500000001 -0.015069791666666667 -0.16603125 -0.13126770833333334 -0.16603125h-0.2013697916666667v0.3909520833333333c0 0.10908229166666666 0.097103125 0.10908229166666666 0.20474791666666667 0.10908229166666666 0.20187291666666668 0 0.290878125 -0.013536458333333334 0.34138229166666667 -0.20458020833333335l0.04703020833333334 0.011547916666666666c-0.02196979166666667 0.08917291666666666 -0.042070833333333335 0.17784270833333332 -0.056996875 0.26694375000000004 -0.10778854166666668 0 -0.30113229166666666 -0.006588541666666667 -0.4522614583333333 -0.006588541666666667 -0.1515125 0 -0.3515885416666667 0.006588541666666667 -0.4473979166666667 0.006588541666666667v-0.05057604166666667Zm1.1835656250000002 -0.9430239583333334c0 -0.12240312500000002 -0.06725104166666666 -0.1274104166666667 -0.11948020833333334 -0.1274104166666667h-0.03028333333333334v-0.05043229166666666c0.053810416666666666 0 0.15802916666666667 0.006732291666666667 0.26064270833333336 0.006732291666666667 0.10076875 0 0.18158020833333335 -0.006732291666666667 0.27063333333333334 -0.006732291666666667 0.21171979166666668 0 0.4002479166666667 0.05702083333333333 0.4002479166666667 0.2955260416666667 0 0.15076979166666665 -0.100840625 0.24310520833333332 -0.233665625 0.2953822916666667l0.2874041666666667 0.42926145833333335c0.047150000000000004 0.07098854166666667 0.08059583333333332 0.09089791666666668 0.16313229166666665 0.100625v0.05064791666666667c-0.05553541666666667 0 -0.10936979166666667 -0.006588541666666667 -0.16478541666666666 -0.006588541666666667 -0.05208541666666667 0 -0.10606354166666666 0.006588541666666667 -0.15795729166666667 0.006588541666666667 -0.12944687500000002 -0.16945729166666668 -0.24068541666666665 -0.350678125 -0.3498395833333333 -0.5439260416666667h-0.11073541666666667v0.3592791666666667c0 0.1293510416666667 0.060351041666666674 0.13399895833333333 0.13756875000000002 0.13399895833333333h0.030355208333333335v0.05064791666666667c-0.096025 0 -0.1932 -0.006588541666666667 -0.289153125 -0.006588541666666667 -0.08081145833333334 0 -0.15982604166666667 0.006588541666666667 -0.2438479166666667 0.006588541666666667v-0.05064791666666667h0.03028333333333334c0.06243541666666667 0 0.11948020833333334 -0.028151041666666664 0.11948020833333334 -0.09032291666666667v-0.8526291666666668Zm0.2153135416666667 0.38922708333333333h0.08208125000000001c0.16830729166666666 0 0.2588697916666667 -0.06360937500000001 0.2588697916666667 -0.26172083333333335 0 -0.14914062500000003 -0.0957375 -0.24483020833333335 -0.24550104166666667 -0.24483020833333335 -0.050528125 0 -0.07206666666666667 0.005151041666666667 -0.09545 0.006660416666666667v0.49989062500000003Zm1.9248364583333335 0.27360416666666665 0.00301875 -0.00330625v-0.6291458333333333c0 -0.13766458333333334 -0.095665625 -0.15778958333333334 -0.14605 -0.15778958333333334h-0.036895833333333336v-0.05036041666666667c0.07901458333333333 0 0.15608854166666666 0.006660416666666667 0.23531875 0.006660416666666667 0.06904791666666667 0 0.13766458333333334 -0.006660416666666667 0.2071197916666667 -0.006660416666666667v0.05036041666666667h-0.025395833333333333c-0.07055729166666666 0 -0.14964375000000002 0.013464583333333334 -0.14964375000000002 0.21308541666666667v0.763671875c0 0.05865 0.00158125 0.11732395833333334 0.00991875 0.16931354166666668h-0.06372916666666667l-0.865878125 -0.9632927083333334v0.6914854166666667c0 0.145978125 0.028510416666666667 0.19617083333333332 0.15798125 0.19617083333333332h0.028558333333333335v0.05057604166666667c-0.07221041666666667 0 -0.144540625 -0.006588541666666667 -0.21675104166666667 -0.006588541666666667 -0.07592395833333335 0 -0.15321354166666667 0.006588541666666667 -0.228778125 0.006588541666666667v-0.05057604166666667h0.023311458333333333c0.11619791666666666 0 0.1515125 -0.07870312500000001 0.1515125 -0.21279791666666667v-0.7067947916666667c0 -0.09384479166666666 -0.07736145833333334 -0.15084166666666668 -0.15295 -0.15084166666666668h-0.021873958333333336v-0.05036041666666667c0.06365729166666667 0 0.12954270833333334 0.006660416666666667 0.193415625 0.006660416666666667 0.05000104166666667 0 0.09894791666666666 -0.006660416666666667 0.14954791666666667 -0.006660416666666667l0.7482427083333334 0.8406020833333333Zm0.5328572916666667 0.09082604166666666c-0.01708229166666667 0.056948958333333334 -0.037303125 0.100840625 -0.037303125 0.13078854166666667 0 0.05040833333333333 0.07067708333333333 0.058578125 0.12602083333333333 0.058578125h0.018783333333333332v0.05057604166666667c-0.06737083333333334 -0.003665625 -0.13605937499999998 -0.006516666666666666 -0.20381354166666668 -0.006516666666666666 -0.060422916666666666 0 -0.12055833333333334 0.002851041666666667 -0.181340625 0.006516666666666666v-0.05057604166666667h0.010182291666666668c0.06552604166666667 0 0.12113333333333336 -0.038525000000000004 0.145978125 -0.10915416666666668l0.26933958333333335 -0.7699010416666666c0.021586458333333332 -0.0621 0.05218125 -0.14605 0.06229166666666667 -0.20836562500000003 0.05352291666666666 -0.018184375 0.12091770833333335 -0.051702083333333336 0.15285416666666668 -0.07192291666666667 0.005175000000000001 -0.0017729166666666668 0.008121875 -0.003497916666666667 0.013416666666666667 -0.003497916666666667 0.00503125 0 0.008121875 0 0.01193125 0.005151041666666667 0.005007291666666667 0.013392708333333333 0.009751041666666667 0.028510416666666667 0.015213541666666667 0.041903125l0.3093020833333333 0.8777135416666667c0.020101041666666666 0.05865 0.04013020833333334 0.12067812500000001 0.06186041666666667 0.17125416666666668 0.020388541666666666 0.04698229166666667 0.055703125000000006 0.06681979166666667 0.11123854166666666 0.06681979166666667h0.0100625v0.05057604166666667c-0.07566041666666667 -0.003665625 -0.151440625 -0.006516666666666666 -0.23196458333333334 -0.006516666666666666 -0.08232083333333334 0 -0.16663020833333334 0.002851041666666667 -0.2524010416666667 0.006516666666666666v-0.05057604166666667h0.018663541666666665c0.038477083333333335 0 0.10426666666666666 -0.006516666666666666 0.10426666666666666 -0.04856354166666667 0 -0.02170625 -0.01514166666666667 -0.06696354166666668 -0.033925000000000004 -0.120821875l-0.06538229166666666 -0.19461354166666667h-0.38165625000000003l-0.05361875 0.17463229166666666Zm0.24538125000000002 -0.7434750000000001h-0.00345l-0.15637604166666666 0.47495h0.3141895833333333l-0.15436354166666666 -0.47495Zm0.7246197916666668 -0.104075c-0.12616458333333333 0 -0.13119583333333334 0.030211458333333333 -0.1564479166666667 0.15256666666666668h-0.050528125c0.0066125 -0.046934375 0.01514166666666667 -0.09384479166666666 0.020388541666666666 -0.14262395833333336 0.006660416666666667 -0.04705416666666667 0.009822916666666667 -0.09382083333333334 0.009822916666666667 -0.14245625h0.0405375c0.01336875 0.05043229166666666 0.055559375 0.048635416666666674 0.10076875 0.048635416666666674h0.8677229166666667c0.045209375 0 0.08720833333333333 -0.001653125 0.090634375 -0.05208541666666667l0.04027395833333333 0.006732291666666667c-0.0064687500000000005 0.045353125 -0.013201041666666668 0.09053854166666668 -0.018232291666666667 0.13596354166666666 -0.0037375 0.04532916666666667 -0.0037375 0.09068229166666666 -0.0037375 0.13586770833333334l-0.0503125 0.018615625c-0.0030666666666666668 -0.06202812500000001 -0.011547916666666666 -0.16121562500000003 -0.12422395833333333 -0.16121562500000003h-0.275784375v0.8927354166666667c0 0.12942291666666667 0.05898541666666667 0.14418125 0.13950937500000002 0.14418125h0.03200833333333333v0.05057604166666667c-0.06559791666666667 0 -0.183209375 -0.006588541666666667 -0.27408333333333335 -0.006588541666666667 -0.10067291666666668 0 -0.21866770833333332 0.006588541666666667 -0.28419374999999997 0.006588541666666667v-0.05057604166666667h0.031936458333333334c0.092646875 0 0.139653125 -0.008217708333333334 0.139653125 -0.140659375v-0.8962572916666667h-0.2757125Zm1.0251770833333333 1.0369166666666667h0.023527083333333334c0.060734375 0 0.12431979166666668 -0.008169791666666667 0.12431979166666668 -0.09554583333333333V12.458572916666666c0 -0.08754375 -0.06358541666666667 -0.09583333333333334 -0.12431979166666668 -0.09583333333333334h-0.023527083333333334v-0.05036041666666667c0.06574166666666667 0 0.16641458333333334 0.006588541666666667 0.24866354166666668 0.006588541666666667 0.08433333333333333 0 0.18517395833333336 -0.006588541666666667 0.26433229166666666 -0.006588541666666667v0.05036041666666667h-0.023551041666666668c-0.06063854166666667 0 -0.12465520833333334 0.008289583333333333 -0.12465520833333334 0.09583333333333334v0.8790552083333333c0 0.08737604166666668 0.06401666666666667 0.09554583333333333 0.12465520833333334 0.09554583333333333h0.023551041666666668v0.05057604166666667c-0.08081145833333334 0 -0.18172395833333332 -0.006588541666666667 -0.2656979166666667 -0.006588541666666667 -0.0825125 0 -0.18155625 0.006588541666666667 -0.24729791666666667 0.006588541666666667v-0.05057604166666667Zm1.18349375 -1.1458791666666668c0.35848854166666666 0 0.6440958333333334 0.22161458333333336 0.6440958333333334 0.5790489583333334 0 0.3859927083333333 -0.2774375 0.6425385416666667 -0.6353989583333334 0.6425385416666667 -0.3567635416666667 0 -0.628978125 -0.24159583333333334 -0.628978125 -0.6023604166666667 0 -0.3489770833333333 0.27063333333333334 -0.6192270833333333 0.62028125 -0.6192270833333333Zm0.025419791666666667 1.1477479166666669c0.326240625 0 0.38299791666666666 -0.287140625 0.38299791666666666 -0.5317552083333333 0 -0.24538125000000002 -0.13239375 -0.5422729166666667 -0.41165208333333336 -0.5422729166666667 -0.29430416666666664 0 -0.3816322916666667 0.26186458333333335 -0.3816322916666667 0.48647395833333335 0 0.3004135416666667 0.13785625 0.5875541666666667 0.4102864583333333 0.5875541666666667Zm1.751665625 -0.28206145833333335 0.00345 -0.00330625v-0.6291458333333333c0 -0.13766458333333334 -0.09609687500000001 -0.15778958333333334 -0.146553125 -0.15778958333333334h-0.036464583333333335v-0.05036041666666667c0.07872708333333334 0 0.1561604166666667 0.006660416666666667 0.23488750000000003 0.006660416666666667 0.06926354166666668 0 0.13816770833333333 -0.006660416666666667 0.2071916666666667 -0.006660416666666667v0.05036041666666667h-0.025395833333333333c-0.07048541666666668 0 -0.14964375000000002 0.013464583333333334 -0.14964375000000002 0.21308541666666667v0.763671875c0 0.05865 0.00158125 0.11732395833333334 0.010134375 0.16931354166666668h-0.06380104166666667l-0.8660937500000001 -0.9632927083333334v0.6914854166666667c0 0.145978125 0.028654166666666668 0.19617083333333332 0.15795729166666667 0.19617083333333332h0.02872604166666667v0.05057604166666667c-0.07235416666666666 0 -0.14446875 -0.006588541666666667 -0.21682291666666667 -0.006588541666666667 -0.07563645833333334 0 -0.15321354166666667 0.006588541666666667 -0.22892187500000002 0.006588541666666667v-0.05057604166666667h0.023742708333333334c0.11619791666666666 0 0.151153125 -0.07870312500000001 0.151153125 -0.21279791666666667v-0.7067947916666667c0 -0.09384479166666666 -0.07693020833333333 -0.15084166666666668 -0.15295 -0.15084166666666668h-0.021945833333333335v-0.05036041666666667c0.06401666666666667 0 0.12961458333333334 0.006660416666666667 0.193415625 0.006660416666666667 0.05036041666666667 0 0.09901979166666668 -0.006660416666666667 0.1496197916666667 -0.006660416666666667l0.7483145833333334 0.8406020833333333Zm0.5326416666666667 0.09082604166666666c-0.016507291666666667 0.056948958333333334 -0.036895833333333336 0.100840625 -0.036895833333333336 0.13078854166666667 0 0.05040833333333333 0.07084479166666667 0.058578125 0.12594895833333333 0.058578125h0.018807291666666667v0.05057604166666667c-0.06729895833333333 -0.003665625 -0.136346875 -0.006516666666666666 -0.20359791666666668 -0.006516666666666666 -0.06071041666666667 0 -0.12098958333333334 0.002851041666666667 -0.18126875 0.006516666666666666v-0.05057604166666667h0.009535416666666668c0.06581354166666667 0 0.12149270833333334 -0.038525000000000004 0.1463375 -0.10915416666666668l0.26941145833333335 -0.7699010416666666c0.021730208333333334 -0.0621 0.05215729166666667 -0.14605 0.061932291666666674 -0.20836562500000003 0.053882291666666665 -0.018184375 0.12106145833333333 -0.051702083333333336 0.15328541666666667 -0.07192291666666667 0.0048156250000000005 -0.0017729166666666668 0.008193750000000001 -0.003497916666666667 0.013272916666666667 -0.003497916666666667 0.00503125 0 0.008265625 0 0.01164375 0.005151041666666667 0.005079166666666667 0.013392708333333333 0.010254166666666667 0.028510416666666667 0.015357291666666668 0.041903125l0.30915833333333337 0.8777135416666667c0.020172916666666665 0.05865 0.04025 0.12067812500000001 0.06236354166666666 0.17125416666666668 0.020172916666666665 0.04698229166666667 0.05563125 0.06681979166666667 0.11095104166666668 0.06681979166666667h0.010254166666666667v0.05057604166666667c-0.07578020833333335 -0.003665625 -0.15148854166666667 -0.006516666666666666 -0.2323 -0.006516666666666666 -0.08217708333333335 0 -0.16641458333333334 0.002851041666666667 -0.25218541666666666 0.006516666666666666v-0.05057604166666667h0.01859166666666667c0.038405208333333336 0 0.10441041666666667 -0.006516666666666666 0.10441041666666667 -0.04856354166666667 0 -0.02170625 -0.015285416666666666 -0.06696354166666668 -0.034020833333333333 -0.120821875l-0.06528645833333334 -0.19461354166666667H20.909395833333335l-0.053978125 0.17463229166666666Zm0.24574062500000002 -0.7434750000000001h-0.003378125l-0.15659166666666666 0.47495h0.3146927083333333l-0.15472291666666668 -0.47495Zm1.0744114583333333 0.8188958333333334c0 0.06725104166666666 0.04671875 0.08723229166666667 0.10052916666666667 0.09410833333333334 0.06897604166666667 0.005079166666666667 0.1446125 0.005079166666666667 0.22218958333333333 -0.0034260416666666666 0.07048541666666668 -0.008457291666666667 0.13098020833333332 -0.048635416666666674 0.16119166666666665 -0.09068229166666666 0.026833333333333334 -0.036967708333333335 0.041903125 -0.08387812500000001 0.05218125 -0.12084583333333333h0.048731250000000004c-0.018447916666666668 0.09561770833333334 -0.042070833333333335 0.189821875 -0.06236354166666666 0.28536770833333336 -0.147559375 0 -0.29605312500000003 -0.006516666666666666 -0.44358854166666667 -0.006516666666666666 -0.14820625 0 -0.29598125000000003 0.006516666666666666 -0.44394791666666666 0.006516666666666666v-0.05057604166666667h0.023167708333333332c0.06078229166666666 0 0.12652395833333335 -0.008169791666666667 0.12652395833333335 -0.11229270833333334v-0.8623802083333334c0 -0.087471875 -0.06574166666666667 -0.09576145833333334 -0.12652395833333335 -0.09576145833333334h-0.023167708333333332v-0.05036041666666667c0.088909375 0 0.17647708333333334 0.006660416666666667 0.26545833333333335 0.006660416666666667 0.086034375 0 0.16993645833333335 -0.006660416666666667 0.2557791666666667 -0.006660416666666667v0.05036041666666667h-0.04228645833333333c-0.06372916666666667 0 -0.11387395833333334 0.0018447916666666669 -0.11387395833333334 0.09058645833333334v0.8659020833333333Z" stroke-width="1"></path></svg>