<svg xmlns="http://www.w3.org/2000/svg" fill="none" viewBox="-0.5 -0.5 24 24" id="Elo--Streamline-Svg-Logos.svg" height="24" width="24"><desc>Elo Streamline Icon: https://streamlinehq.com</desc><path fill="#FC0" d="M3.750485416666667 9.091205208333333c0.2529760416666667 -0.084525 0.5234416666666667 -0.12995 0.805071875 -0.12995 1.2280083333333334 0 2.25328125 0.8722510416666667 2.488144791666667 2.03161875l1.740740625 -0.35508645833333335c-0.39950520833333336 -1.9703093750000003 -2.140701041666667 -3.4531145833333334 -4.2288854166666665 -3.4531145833333334 -0.4784958333333334 0 -0.9381843750000001 0.07798437500000001 -1.3682125 0.2216625l0.563140625 1.6848697916666666Z" stroke-width="1"></path><path fill="#00A0DE" d="m1.69602 14.732817708333334 1.177183125 -1.330909375C2.3477226041666666 12.936373958333334 2.01618 12.256963541666668 2.01618 11.5c0 -0.7563885416666667 0.3310921875 -1.4354875 0.8562325000000001 -1.900446875l-1.1772933333333333 -1.3311250000000001C0.8027071875 9.059077083333333 0.23958333333333334 10.213964583333333 0.23958333333333334 11.5c0 1.2868260416666668 0.5633490625 2.4420489583333334 1.4564366666666668 3.232817708333333Z" stroke-width="1"></path><path fill="#EC3413" d="M7.043175000000001 12.009497916666668c-0.2358697916666667 1.1588166666666668 -1.2600166666666668 2.0293666666666668 -2.4876895833333332 2.0293666666666668 -0.28172604166666665 0 -0.5529822916666667 -0.045425 -0.8058625 -0.13040520833333333l-0.5639072916666666 1.6855645833333335c0.4301479166666667 0.14355833333333332 0.8907229166666667 0.22132708333333334 1.3697697916666667 0.22132708333333334 2.086171875 0 3.8271520833333335 -1.4803375 4.228214583333333 -3.44885l-1.740525 -0.35700312500000003Z" stroke-width="1"></path><path fill="#000" d="M10.306635416666667 13.457994791666668c-0.05702083333333333 -0.09240729166666667 -0.13455 -0.240134375 -0.18122083333333333 -0.34888125 -0.27564062500000003 -0.6399989583333333 -0.28881770833333337 -1.3022791666666667 -0.055990625 -1.9380854166666666 0.25592291666666667 -0.697259375 0.7448885416666667 -1.2310510416666667 1.376621875 -1.5028822916666666 0.794290625 -0.34178958333333337 1.6727229166666666 -0.27441875 2.433951041666667 0.17726770833333333 0.4835750000000001 0.2774375 0.8263947916666667 0.7057885416666667 1.0867020833333334 1.3113833333333333l0.02415 0.058865625000000005 0.045065625 0.1170125c0.007235416666666667 0.018879166666666666 0.014398958333333335 0.03723125 0.021490625000000003 0.054816666666666666L10.306635416666667 13.457994791666668Zm1.5863770833333335 -2.76244375c-0.5640270833333334 0.24241041666666668 -0.8547854166666667 0.7715062500000001 -0.7950572916666666 1.3918593750000001l2.3892927083333335 -1.0282916666666666c-0.4108614583333334 -0.48288020833333334 -0.9455875 -0.642921875 -1.5942354166666668 -0.36356770833333335ZM14.708739583333333 13.550402083333333l-0.9235218749999999 -0.6174541666666666 -0.0013416666666666668 0.001365625 -0.04947395833333333 -0.033373958333333335c-0.14255208333333333 0.23138958333333334 -0.3650291666666667 0.4187677083333334 -0.645725 0.5405 -0.5340552083333333 0.23225208333333336 -1.0290104166666667 0.17252395833333334 -1.3844322916666667 -0.13919791666666667l-0.03267916666666667 0.049713541666666666c-0.0003354166666666667 -0.000575 -0.00045520833333333334 -0.00100625 -0.0010302083333333333 -0.00100625l-0.6061697916666667 0.9068229166666667c0.15045833333333333 0.10457812500000001 0.3120572916666667 0.19315208333333334 0.4817541666666667 0.26392499999999997 0.6696354166666667 0.2781322916666667 1.3547 0.265290625 2.02960625 -0.028270833333333332 0.4881989583333334 -0.21155208333333334 0.8712447916666667 -0.5341750000000001 1.1330135416666667 -0.9430239583333334Zm2.00919375 -5.217765625v5.041647916666666l0.7837968750000001 0.3176635416666667 -0.44536145833333335 1.039240625 -0.8652552083333334 -0.3602854166666667c-0.19420625 -0.08404583333333333 -0.326384375 -0.21275000000000002 -0.4264583333333334 -0.358009375 -0.095665625 -0.14808645833333334 -0.16722916666666665 -0.351253125 -0.16722916666666665 -0.62488125V8.332636458333333h1.1205072916666667Zm2.0306125 3.7572895833333337c0.00045520833333333334 -0.4293572916666667 0.19001354166666667 -0.81434375 0.48999583333333335 -1.0760166666666666l-0.8041854166666667 -0.8966885416666668c-0.5454354166666667 0.48211354166666676 -0.8889260416666668 1.1865604166666668 -0.889596875 1.9714354166666668 -0.0009104166666666667 0.7851625000000001 0.3421489583333333 1.4903760416666667 0.8870093750000001 1.9737114583333333l0.803275 -0.8975989583333334c-0.2985447916666667 -0.2626791666666667 -0.48685729166666664 -0.646515625 -0.48649791666666675 -1.0748427083333334Zm1.4288270833333334 1.430959375c-0.15836458333333334 -0.00045520833333333334 -0.31081145833333335 -0.026593750000000003 -0.45305208333333336 -0.07393541666666667l-0.384028125 1.1419020833333335c0.26246354166666663 0.08811875000000001 0.5436145833333333 0.13615520833333333 0.835834375 0.13661041666666668 1.2733135416666668 0.0012458333333333334 2.3365604166666665 -0.902246875 2.5829 -2.1033020833333333l-1.1804510416666667 -0.24104479166666667c-0.13421458333333336 0.6510197916666667 -0.7106520833333334 1.140225 -1.4012031249999999 1.1397697916666667Zm0.003497916666666667 -4.0638125c-0.291884375 -0.0003354166666666667 -0.572915625 0.047126041666666674 -0.83504375 0.13445416666666668l0.38067395833333334 1.1429083333333334c0.142671875 -0.047102083333333336 0.29511875 -0.07312083333333334 0.45324375 -0.07312083333333334 0.69215625 0.0006708333333333334 1.269025 0.492775 1.4001010416666666 1.1456395833333333L22.760416666666668 11.567466666666666c-0.24298541666666668 -1.2027802083333334 -1.3052020833333333 -2.1096031250000005 -2.5795458333333334 -2.11039375Z" stroke-width="1"></path></svg>