<svg xmlns="http://www.w3.org/2000/svg" fill="none" viewBox="-0.5 -0.5 24 24" id="Hipercard--Streamline-Svg-Logos.svg" height="24" width="24"><desc>Hipercard Streamline Icon: https://streamlinehq.com</desc><path fill="#B82126" d="M6.422007291666667 6.598484375h-2.3340927083333334c-1.0313104166666667 0.048755208333333334 -1.8743179166666668 0.46414479166666667 -2.1177321875 1.3207270833333333 -0.12692166666666668 0.4467270833333334 -0.1967721875 0.9373697916666667 -0.29602197916666667 1.4004604166666665C1.1696051041666666 11.674368750000001 0.7222119791666667 14.093872916666667 0.23958333333333334 16.401515625000002h18.171509375c1.4048447916666666 0 2.3693833333333334 -0.29684375 2.6300739583333335 -1.4117927083333333 0.12110937499999999 -0.5179552083333334 0.23711562500000002 -1.104646875 0.35297812500000003 -1.6737052083333335C21.845783333333333 11.097260416666668 22.297805208333337 8.878646875000001 22.760416666666668 6.598484375H6.422007291666667Z" stroke-width="1"></path><path fill="#fff" d="M15.797454166666668 12.455362500000001c-0.25201770833333337 0.24669895833333336 -0.9594354166666667 0.3167770833333334 -0.8870572916666667 -0.27295729166666666 0.06008750000000001 -0.4898041666666667 0.5933520833333333 -0.5938791666666667 1.171346875 -0.5231302083333333 -0.042981250000000006 0.2679020833333334 -0.09226354166666667 0.6080864583333334 -0.2842895833333334 0.7960875000000001Zm-0.7960875000000001 -1.9106052083333336c-0.024078125000000002 0.135125 -0.06104583333333334 0.257384375 -0.09096979166666666 0.3866395833333333 0.28857812499999996 -0.07233020833333334 1.187159375 -0.294184375 1.2737447916666667 0.09096979166666666 0.02875 0.12796145833333333 -0.020843749999999998 0.26392499999999997 -0.056877083333333335 0.36395104166666664 -0.8125947916666667 -0.07695416666666667 -1.4748989583333334 0.05802708333333333 -1.6490520833333333 0.6368604166666667 -0.11667708333333333 0.38771770833333336 0.013057291666666667 0.7692302083333334 0.2616010416666667 0.8757489583333333 0.47861562500000004 0.20503541666666666 1.060803125 -0.029852083333333335 1.2623406250000002 -0.35257083333333333 -0.020915625 0.11174166666666667 -0.040753125 0.22456145833333335 -0.03411666666666667 0.36392708333333335h0.42078020833333335c0.00445625 -0.403003125 0.06310625 -0.7291958333333334 0.12511041666666667 -1.0918291666666666 0.052852083333333334 -0.3087989583333333 0.15225520833333334 -0.6145072916666667 0.13644270833333333 -0.8870572916666667 -0.036129166666666664 -0.6241864583333334 -1.0701947916666668 -0.40338645833333336 -1.6490041666666666 -0.3866395833333333Zm4.219254166666667 2.103925c-0.3292114583333334 0.007067708333333333 -0.4928947916666667 -0.19667395833333334 -0.5004177083333333 -0.5344864583333334 -0.013105208333333333 -0.5916510416666667 0.24641145833333333 -1.2489479166666668 0.7733510416666667 -1.3078854166666667 0.24535729166666667 -0.027432291666666667 0.422984375 0.0296125 0.6027677083333333 0.09099375000000001 -0.165025 0.6645562500000001 -0.105440625 1.7348708333333334 -0.8757010416666667 1.7513781250000002Zm1.0917572916666667 -3.127472916666667c-0.041903125 0.3674729166666667 -0.09794166666666666 0.7208822916666667 -0.17053541666666666 1.0576406250000001 -1.1995697916666668 -0.3796916666666667 -1.9352343750000003 0.5028614583333334 -1.9220333333333333 1.5921750000000001 0.0025875000000000004 0.210665625 0.03886041666666667 0.4195822916666667 0.17063125 0.5686270833333334 0.227053125 0.25683333333333336 0.8772343750000001 0.3182385416666667 1.2054635416666668 0.10239791666666667 0.06360937500000001 -0.04178333333333333 0.1285125 -0.11780312500000001 0.17063125 -0.17058333333333334 0.031625 -0.039746875 0.08188958333333334 -0.14370208333333334 0.090921875 -0.11380208333333333 -0.017202083333333333 0.11547916666666666 -0.043005208333333336 0.22238125 -0.045425 0.35261875000000004h0.44351666666666667c0.085459375 -1.2262114583333334 0.34979166666666667 -2.2735499999999997 0.5458906250000001 -3.3890739583333334h-0.48906145833333337ZM7.791058333333333 12.466742708333333c-0.26162500000000005 0.27710208333333336 -0.904834375 0.27286145833333336 -0.9552666666666667 -0.19336770833333336 -0.021993750000000003 -0.20285520833333334 0.05359479166666667 -0.41558125 0.09096979166666666 -0.6254562499999999 0.03778229166666667 -0.21243854166666667 0.06499895833333333 -0.4162760416666667 0.10230208333333334 -0.602815625 0.2577197916666667 -0.31466875 1.0149947916666668 -0.35264270833333333 1.0918291666666666 0.17063125 0.06667604166666667 0.4542979166666667 -0.11313125 1.0215114583333333 -0.329834375 1.2510083333333333Zm0.38671145833333337 -1.9219854166666668c-0.4139041666666667 -0.15548958333333335 -0.9183708333333334 0.030115625000000004 -1.1370385416666666 0.20666458333333335 0.0007427083333333333 0.0077625 -0.0052229166666666665 0.008816666666666667 -0.011667708333333334 0.009391666666666666 0.0037614583333333332 -0.003138541666666667 0.007786458333333334 -0.006277083333333334 0.011667708333333334 -0.009391666666666666 -0.00004791666666666667 -0.0006708333333333334 -0.00009583333333333334 -0.0012458333333333334 -0.0002635416666666667 -0.0019645833333333334 0.0037135416666666666 -0.07594791666666667 0.030427083333333334 -0.1288 0.03411666666666667 -0.20470000000000002h-0.42078020833333335c-0.17535104166666668 1.1666270833333332 -0.3832854166666667 2.300598958333333 -0.6027677083333333 3.423166666666667h0.4890135416666667c0.070796875 -0.437215625 0.11756354166666667 -0.8984135416666666 0.216128125 -1.3078375 0.11166979166666667 0.4306270833333334 0.8408895833333333 0.34830625 1.1485864583333334 0.18196354166666667 0.6349677083333334 -0.3433229166666667 1.1246760416666668 -1.9773770833333333 0.27300520833333336 -2.2972927083333334Zm2.31998125 0.8188239583333333h-1.1485864583333334c0.03634479166666667 -0.26406875 0.273915625 -0.5543239583333334 0.6481927083333333 -0.5686270833333334 0.35230729166666663 -0.013464583333333334 0.6045406249999999 0.12932708333333331 0.50039375 0.5686270833333334Zm-0.466253125 -0.8643208333333334c-0.3533614583333334 0.02721666666666667 -0.65205 0.12889583333333335 -0.8643208333333334 0.3525229166666667 -0.26035520833333337 0.2743229166666667 -0.47121250000000003 0.8807322916666667 -0.4094239583333334 1.4329958333333335 0.08811875000000001 0.7878697916666667 1.0691166666666667 0.7595989583333334 1.8537520833333334 0.5686270833333334 0.013344791666666666 -0.13826354166666666 0.04681458333333333 -0.25647395833333336 0.06823333333333334 -0.38666354166666667 -0.32324583333333334 0.12096562500000001 -0.8844458333333334 0.2897760416666667 -1.2168677083333335 0.07961354166666666 -0.2510114583333334 -0.1587 -0.25244895833333336 -0.5605770833333333 -0.17058333333333334 -0.9098416666666668 0.5273229166666668 -0.016770833333333336 1.0754177083333334 -0.013536458333333334 1.60353125 0 0.03349375 -0.2475375 0.12937500000000002 -0.517428125 0.04547291666666667 -0.761946875 -0.11066354166666667 -0.322790625 -0.5067187500000001 -0.4063333333333333 -0.9097937500000001 -0.3753072916666667Zm-4.298867708333334 0.045496875000000006c-0.013248958333333335 0.0018927083333333337 -0.012386458333333334 0.01796875 -0.011404166666666668 0.03409270833333334 -0.107740625 0.8058385416666667 -0.2535510416666667 1.5736552083333333 -0.40940000000000004 2.3314333333333335h0.4890135416666667c0.117515625 -0.8112770833333334 0.25211354166666666 -1.6054239583333334 0.42078020833333335 -2.3655260416666666h-0.4889895833333333Zm12.760160416666666 0.011332291666666668c-0.4322322916666667 -0.21605625000000003 -0.7920145833333334 0.14652916666666668 -0.9325302083333334 0.36392708333333335 0.04001041666666667 -0.11155000000000001 0.04228645833333333 -0.26090625 0.079565625 -0.375259375h-0.432184375c-0.11648541666666667 0.8122354166666668 -0.25700104166666665 1.6005125 -0.42078020833333335 2.3655260416666666h0.50039375c0.0031864583333333332 -0.31354270833333336 0.06473541666666667 -0.545459375 0.11370625000000001 -0.8529645833333334 0.10462604166666667 -0.6565062500000001 0.25812708333333334 -1.3765260416666667 1.0235958333333335 -1.1600145833333333 0.025395833333333333 -0.111046875 0.035961458333333335 -0.23699583333333332 0.06823333333333334 -0.3412145833333333Zm-5.493046875 1.7968989583333332c-0.04504166666666667 -0.1164375 -0.05675729166666667 -0.30875104166666667 -0.045496875000000006 -0.4549208333333334 0.025323958333333334 -0.3286125 0.14501979166666665 -0.7286927083333334 0.329834375 -0.9097937500000001 0.25501250000000003 -0.24998125000000004 0.7584729166666667 -0.20860520833333335 1.159990625 -0.06825729166666666 0.012458333333333333 -0.13536458333333332 0.03965104166666667 -0.2560427083333333 0.056877083333333335 -0.386615625 -0.6585666666666667 -0.10757291666666667 -1.28354375 -0.04068125 -1.6149114583333333 0.3070260416666667 -0.3243479166666667 0.3403760416666667 -0.5370260416666667 1.1226875 -0.38671145833333337 1.6149354166666667 0.17597395833333335 0.5760062499999999 0.9648260416666666 0.6072958333333334 1.6036270833333333 0.3866875 0.028222916666666667 -0.11579062500000001 0.043172916666666665 -0.24485416666666668 0.06823333333333334 -0.36395104166666664 -0.3490489583333334 0.18136458333333333 -1.0163125 0.2755927083333334 -1.1714427083333334 -0.12511041666666667Zm-0.272909375 -1.80823125c-0.43362187500000005 -0.17513541666666668 -0.7745010416666667 0.120821875 -0.9325302083333334 0.39804375000000003 0.03581770833333333 -0.12333750000000002 0.0506 -0.26778229166666667 0.079565625 -0.39804375000000003h-0.432184375c-0.10560833333333335 0.8193510416666667 -0.26136145833333335 1.5886052083333333 -0.4093760416666667 2.3655260416666666h0.4890375c0.06854479166666667 -0.4611979166666667 0.09813333333333334 -1.0828208333333333 0.2501729166666667 -1.523965625 0.12151666666666666 -0.3525229166666667 0.4395395833333334 -0.652840625 0.8984375 -0.4890135416666667 0.006444791666666667 -0.13004583333333333 0.043676041666666665 -0.22930520833333334 0.056877083333333335 -0.35254687500000004ZM4.845572916666667 9.58941875c-0.06986250000000001 0.45329166666666665 -0.148565625 0.8977427083333334 -0.2274604166666667 1.341978125 -0.506646875 0.005342708333333334 -1.0239072916666667 0.025036458333333334 -1.5125614583333333 -0.011380208333333334 0.0922875 -0.4345802083333334 0.158484375 -0.8953229166666667 0.25014895833333334 -1.3305979166666666h-0.5458427083333334c-0.19545208333333333 1.1086958333333334 -0.37317500000000003 2.2350010416666666 -0.5913707291666667 3.3208645833333335h0.5572301041666666c0.08744791666666667 -0.5570552083333333 0.16916979166666665 -1.1197885416666666 0.2842895833333334 -1.6490520833333333 0.4751416666666667 -0.011715625 1.04463125 -0.03210416666666667 1.5012291666666668 0.011380208333333334 -0.09415625000000001 0.5502989583333333 -0.20791041666666668 1.0809520833333335 -0.29569375 1.6376718749999999h0.5572708333333334c0.17901666666666666 -1.1250354166666667 0.3677125 -2.2404395833333335 0.5913875 -3.3208645833333335H4.845572916666667Zm1.3874510416666668 0.5004177083333333c0.09751041666666667 -0.06713125 0.22305208333333335 -0.37305520833333333 0.07961354166666666 -0.5004177083333333 -0.045425 -0.040321875 -0.12146875 -0.05201354166666666 -0.2274604166666667 -0.03409270833333334 -0.09834895833333333 0.016603125 -0.15491458333333333 0.05000104166666667 -0.19331979166666666 0.10232604166666666 -0.06183645833333334 0.08416562500000001 -0.11842604166666668 0.33790833333333337 -0.022784375000000003 0.432184375 0.09317395833333335 0.09180833333333334 0.30189895833333336 0.04269375 0.36395104166666664 0Z" stroke-width="1"></path></svg>