<svg xmlns="http://www.w3.org/2000/svg" fill="none" viewBox="-0.5 -0.5 24 24" id="Mastercard--Streamline-Svg-Logos.svg" height="24" width="24"><desc>Mastercard Streamline Icon: https://streamlinehq.com</desc><path fill="#000" d="M4.337728125 20.19903125v-1.159846875c0 -0.44461875 -0.27063333333333334 -0.7345864583333334 -0.7345864583333334 -0.7345864583333334 -0.23196458333333334 0 -0.4832875 0.07731354166666667 -0.6572489583333334 0.3286364583333333 -0.13531666666666667 -0.21265416666666667 -0.3286364583333333 -0.3286364583333333 -0.6186065625 -0.3286364583333333 -0.19331260416666668 0 -0.3866228125 0.057979166666666665 -0.5412714583333333 0.27063333333333334v-0.23196458333333334H1.3800598958333334v1.8557645833333334h0.4059547916666667v-1.0245302083333334c0 -0.3286364583333333 0.17398062500000003 -0.4832875 0.44461635416666667 -0.4832875 0.2706429166666667 0 0.4059595833333333 0.17398541666666667 0.4059595833333333 0.4832875v1.0245302083333334h0.40595v-1.0245302083333334c0 -0.3286364583333333 0.19331979166666666 -0.4832875 0.44461875 -0.4832875 0.27063333333333334 0 0.40595 0.17398541666666667 0.40595 0.4832875v1.0245302083333334h0.44461875Zm6.011984375 -1.8557645833333334h-0.6572729166666667v-0.560625H9.286489583333335v0.560625h-0.36728125v0.36728125h0.36728125v0.85056875c0 0.425284375 0.17398541666666667 0.6765833333333333 0.6379385416666667 0.6765833333333333 0.17396145833333332 0 0.36728125 -0.057979166666666665 0.5025979166666666 -0.13531666666666667l-0.11598229166666667 -0.347946875c-0.11598229166666667 0.07731354166666667 -0.2512989583333333 0.09664791666666667 -0.34797083333333334 0.09664791666666667 -0.19329583333333333 0 -0.27063333333333334 -0.11598229166666667 -0.27063333333333334 -0.3093020833333333v-0.8312343750000001h0.6572729166666667v-0.36728125Zm3.440919791666667 -0.03866875c-0.23196458333333334 0 -0.386615625 0.11598229166666667 -0.48326354166666674 0.27063333333333334v-0.23196458333333334h-0.40595v1.8557645833333334h0.40595v-1.0438645833333333c0 -0.3093020833333333 0.13531666666666667 -0.4832875 0.386615625 -0.4832875 0.0773375 0 0.17398541666666667 0.019334375 0.2512989583333333 0.03866875l0.11600625 -0.386615625c-0.0773375 -0.019334375 -0.19331979166666666 -0.019334375 -0.27065729166666663 -0.019334375Zm-5.200060416666667 0.19329583333333333c-0.19331979166666666 -0.13531666666666667 -0.463953125 -0.19329583333333333 -0.7539208333333334 -0.19329583333333333 -0.463953125 0 -0.77323125 0.23196458333333334 -0.77323125 0.5992697916666667 0 0.309278125 0.23196458333333334 0.48326354166666674 0.6379145833333333 0.5412666666666667l0.19331979166666666 0.019334375c0.21263020833333332 0.03864479166666667 0.3286364583333333 0.09664791666666667 0.3286364583333333 0.19329583333333333 0 0.13531666666666667 -0.15465104166666666 0.2319885416666667 -0.425284375 0.2319885416666667 -0.27065729166666663 0 -0.4832875 -0.096671875 -0.6186041666666666 -0.19331979166666666l-0.19331979166666666 0.3093020833333333c0.21265416666666667 0.15465104166666666 0.502621875 0.23196458333333334 0.7925895833333333 0.23196458333333334 0.5412666666666667 0 0.85056875 -0.2512989583333333 0.85056875 -0.5992697916666667 0 -0.3286125 -0.2513229166666667 -0.5025979166666666 -0.6379385416666667 -0.5606010416666667l-0.19329583333333333 -0.01931041666666667c-0.17398541666666667 -0.019334375 -0.3093020833333333 -0.058003125 -0.3093020833333333 -0.17398541666666667 0 -0.13531666666666667 0.13531666666666667 -0.21265416666666667 0.347946875 -0.21265416666666667 0.2319885416666667 0 0.463953125 0.096671875 0.5799354166666667 0.15465104166666666l0.17398541666666667 -0.3286364583333333Zm10.786760416666668 -0.19329583333333333c-0.23196458333333334 0 -0.386615625 0.11598229166666667 -0.48326354166666674 0.27063333333333334v-0.23196458333333334h-0.40595v1.8557645833333334h0.40595v-1.0438645833333333c0 -0.3093020833333333 0.13531666666666667 -0.4832875 0.386615625 -0.4832875 0.07731354166666667 0 0.17398541666666667 0.019334375 0.2512989583333333 0.03866875l0.11598229166666667 -0.386615625c-0.07731354166666667 -0.019334375 -0.19329583333333333 -0.019334375 -0.27063333333333334 -0.019334375Zm-5.1807260416666665 0.9665510416666667c0 0.5606010416666667 0.386615625 0.9665510416666667 0.9858854166666667 0.9665510416666667 0.27063333333333334 0 0.46392916666666667 -0.057979166666666665 0.6572489583333334 -0.21263020833333332l-0.19331979166666666 -0.3286364583333333c-0.15462708333333333 0.11598229166666667 -0.309278125 0.17398541666666667 -0.48326354166666674 0.17398541666666667 -0.3286364583333333 0 -0.5606010416666667 -0.2319885416666667 -0.5606010416666667 -0.5992697916666667 0 -0.34797083333333334 0.23196458333333334 -0.5799354166666667 0.5606010416666667 -0.5992697916666667 0.17398541666666667 0 0.3286364583333333 0.058003125 0.48326354166666674 0.17398541666666667l0.19331979166666666 -0.3286364583333333c-0.19331979166666666 -0.15465104166666666 -0.386615625 -0.21263020833333332 -0.6572489583333334 -0.21263020833333332 -0.5992697916666667 0 -0.9858854166666667 0.40595 -0.9858854166666667 0.9665510416666667Zm3.7502218750000003 0v-0.9278822916666667h-0.40595v0.23196458333333334c-0.13531666666666667 -0.17398541666666667 -0.3286364583333333 -0.27063333333333334 -0.5799354166666667 -0.27063333333333334 -0.5219322916666667 0 -0.9278822916666667 0.40595 -0.9278822916666667 0.9665510416666667s0.40595 0.9665510416666667 0.9278822916666667 0.9665510416666667c0.27063333333333334 0 0.463953125 -0.09664791666666667 0.5799354166666667 -0.27063333333333334v0.23196458333333334h0.40595v-0.9278822916666667Zm-1.4884833333333334 0c0 -0.3286364583333333 0.21263020833333332 -0.5992697916666667 0.5606010416666667 -0.5992697916666667 0.3286125 0 0.5606010416666667 0.2512989583333333 0.5606010416666667 0.5992697916666667 0 0.3286364583333333 -0.2319885416666667 0.5992697916666667 -0.5606010416666667 0.5992697916666667 -0.34797083333333334 -0.019334375 -0.5606010416666667 -0.27063333333333334 -0.5606010416666667 -0.5992697916666667Zm-4.852113541666667 -0.9665510416666667c-0.5412666666666667 0 -0.92790625 0.386615625 -0.92790625 0.9665510416666667 0 0.5799354166666667 0.3866395833333333 0.9665510416666667 0.9472406250000001 0.9665510416666667 0.27063333333333334 0 0.5412666666666667 -0.07731354166666667 0.753896875 -0.2512989583333333l-0.19329583333333333 -0.28996770833333335c-0.15465104166666666 0.11598229166666667 -0.34797083333333334 0.19331979166666666 -0.5412666666666667 0.19331979166666666 -0.2513229166666667 0 -0.502621875 -0.11600625 -0.560625 -0.44461875h1.372525v-0.15465104166666666c0.019334375 -0.5992697916666667 -0.3286364583333333 -0.9858854166666667 -0.85056875 -0.9858854166666667Zm0 0.347946875c0.2512989583333333 0 0.425284375 0.15465104166666666 0.463953125 0.44461875h-0.966575c0.03866875 -0.2512989583333333 0.21265416666666667 -0.44461875 0.502621875 -0.44461875Zm10.071508333333334 0.6186041666666666v-1.6624687500000002h-0.40595v0.9665510416666667c-0.13531666666666667 -0.17398541666666667 -0.3286364583333333 -0.27063333333333334 -0.5799354166666667 -0.27063333333333334 -0.5219322916666667 0 -0.9278822916666667 0.40595 -0.9278822916666667 0.9665510416666667s0.40595 0.9665510416666667 0.9278822916666667 0.9665510416666667c0.27063333333333334 0 0.463953125 -0.09664791666666667 0.5799354166666667 -0.27063333333333334v0.23196458333333334h0.40595v-0.9278822916666667Zm-1.4884833333333334 0c0 -0.3286364583333333 0.21263020833333332 -0.5992697916666667 0.5606010416666667 -0.5992697916666667 0.3286125 0 0.5606010416666667 0.2512989583333333 0.5606010416666667 0.5992697916666667 0 0.3286364583333333 -0.2319885416666667 0.5992697916666667 -0.5606010416666667 0.5992697916666667 -0.34797083333333334 -0.019334375 -0.5606010416666667 -0.27063333333333334 -0.5606010416666667 -0.5992697916666667Zm-13.570455208333334 0v-0.9278822916666667h-0.40595v0.23196458333333334c-0.13531666666666667 -0.17398541666666667 -0.3286364583333333 -0.27063333333333334 -0.5799354166666667 -0.27063333333333334 -0.52195625 0 -0.92790625 0.40595 -0.92790625 0.9665510416666667s0.40595 0.9665510416666667 0.92790625 0.9665510416666667c0.27063333333333334 0 0.46392916666666667 -0.09664791666666667 0.5799354166666667 -0.27063333333333334v0.23196458333333334h0.40595v-0.9278822916666667Zm-1.5078416666666667 0c0 -0.3286364583333333 0.21265416666666667 -0.5992697916666667 0.5606010416666667 -0.5992697916666667 0.3286364583333333 0 0.5606010416666667 0.2512989583333333 0.5606010416666667 0.5992697916666667 0 0.3286364583333333 -0.23196458333333334 0.5992697916666667 -0.5606010416666667 0.5992697916666667 -0.347946875 -0.019334375 -0.5606010416666667 -0.27063333333333334 -0.5606010416666667 -0.5992697916666667Z" stroke-width="1"></path><path fill="#FF5F00" d="M14.544672916666666 4.250783333333334H8.455375V15.19221875h6.089297916666667V4.250783333333334Z" stroke-width="1"></path><path fill="#EB001B" d="M8.841942708333335 9.721548958333335c0 -2.2230697916666666 1.0438645833333333 -4.194864583333334 2.648354166666667 -5.470717708333333 -1.1792052083333333 -0.9278822916666667 -2.6676885416666667 -1.4884833333333334 -4.2915125000000005 -1.4884833333333334C3.3518906250000002 2.7623479166666667 0.23958333333333334 5.874655208333333 0.23958333333333334 9.721548958333335S3.3518906250000002 16.68075 7.198784375000001 16.68075c1.6238239583333334 0 3.112307291666667 -0.5606010416666667 4.2915125000000005 -1.4884833333333334 -1.6044895833333335 -1.2565187500000001 -2.648354166666667 -3.2476479166666667 -2.648354166666667 -5.470717708333333Z" stroke-width="1"></path><path fill="#F79E1B" d="M22.760416666666668 9.721548958333335C22.760416666666668 13.568442708333333 19.648109375 16.68075 15.801215625000001 16.68075c-1.6238 0 -3.112307291666667 -0.5606010416666667 -4.2915125000000005 -1.4884833333333334 1.6238239583333334 -1.275853125 2.6483781250000002 -3.2476479166666667 2.6483781250000002 -5.470717708333333 0 -2.2230697916666666 -1.0438885416666668 -4.194864583333334 -2.6483781250000002 -5.470717708333333 1.1792052083333333 -0.9278822916666667 2.6677125000000004 -1.4884833333333334 4.2915125000000005 -1.4884833333333334C19.648109375 2.7623479166666667 22.760416666666668 5.893989583333333 22.760416666666668 9.721548958333335Z" stroke-width="1"></path></svg>