<svg viewBox="-0.5 -0.5 16 16" fill="currentColor" xmlns="http://www.w3.org/2000/svg" height="16" width="16" id="Visa-Fill--Streamline-Remix-Fill.svg"><path d="M0.625 2.5H14.375V3.75H0.625V2.5ZM0.625 11.25H14.375V12.5H0.625V11.25ZM12.2635625 9.321L12.155000000000001 8.77725L10.937125000000002 8.7771875L10.7436875 9.316875L9.7671875 9.319062500000001C10.394749999999998 7.81475 10.8604375 6.700374999999999 11.16425 5.97605625C11.243625 5.7868875 11.384749999999999 5.6903875 11.592625000000002 5.691868749999999C11.751249999999999 5.6930499999999995 12.0105 5.693200000000001 12.3704375 5.69231875L13.125 9.31925L12.2635625 9.321ZM11.211 8.032375H11.996L11.703 6.6696875L11.211 8.032375ZM4.92001875 5.69100625L5.90153125 5.692275L4.38444375 9.321L3.39084375 9.320562500000001C3.05490625 8.0265 2.80821875 7.0670625 2.65078125 6.4422500000000005C2.6025125 6.250624999999999 2.5065125 6.116875 2.3219937500000003 6.05360625C2.15746875 5.997193750000001 1.88346875 5.9099625 1.5 5.791918750000001V5.69231875C2.2169875 5.692231250000001 2.73961875 5.692231250000001 3.0678937499999996 5.69231875C3.33936875 5.692399999999999 3.49761875 5.823143750000001 3.54853125 6.0915937499999995C3.5996375 6.3611875 3.7287437499999996 7.0464375 3.93584375 8.1474375L4.92001875 5.69100625ZM7.249625 5.69228125L6.4742500000000005 9.320625L5.5402125 9.31925C5.55864375 9.231125 5.8167625 8.0216875 6.314562500000001 5.69100625L7.249625 5.69228125ZM9.1441875 5.625C9.4233125 5.625 9.7753125 5.7115375 9.97825 5.791918750000001L9.814375 6.544124999999999C9.63125 6.47075 9.33025 6.3715 9.07675 6.375375C8.708124999999999 6.3810625 8.480625 6.535375 8.480625 6.6835C8.480625 6.9239375 8.8759375 7.045 9.283 7.3080625C9.74725 7.6080625 9.8085625 7.876875 9.8028125 8.169562500000001C9.7961875 8.776375 9.283 9.375 8.2 9.375C7.705375 9.367625 7.527749999999999 9.3261875 7.1246875 9.1835L7.294874999999999 8.3985C7.705125000000001 8.57 7.879125 8.624437499999999 8.2296875 8.624437499999999C8.551 8.624437499999999 8.826812499999999 8.494875 8.8291875 8.26925C8.830875 8.10875 8.7325 8.029375 8.371875 7.8308124999999995C8.011312499999999 7.6323125 7.5059375 7.357875 7.5124375 6.8055625C7.5207500000000005 6.09888125 8.191625 5.625 9.1441875 5.625Z" stroke-width="1"></path></svg>